<svg width="14" height="12" viewBox="0 0 14 12" fill="none" xmlns="http://www.w3.org/2000/svg">
<path d="M9.59998 0.599609C11.532 0.599609 13.0756 2.1317 13.1332 4.08398V4.2002C13.1331 5.24212 12.7296 6.14487 12.0609 6.75781L11.8666 6.93652V6.98047C11.7656 7.06604 11.6353 7.17783 11.4838 7.30957C11.1466 7.60273 10.695 8.00038 10.2035 8.43359C9.22168 9.29892 8.07966 10.3083 7.349 10.9395C7.17258 11.0862 6.89856 11.0865 6.72107 10.9414C5.98886 10.309 4.82568 9.2963 3.8363 8.43164C3.34071 7.99852 2.88886 7.6028 2.55701 7.31152C2.40687 7.17974 2.28741 7.07349 2.19958 6.99609V6.95117L2.02478 6.77539C1.33102 6.08163 0.933037 5.16559 0.932983 4.2002V4.08496C0.989767 2.21111 2.58945 0.666992 4.46716 0.666992C4.74534 0.667098 5.11403 0.763919 5.48181 0.961914C5.83372 1.1514 6.14175 1.41108 6.34412 1.7002C6.64091 2.30642 7.51663 2.29878 7.79919 1.67773C7.96446 1.37509 8.26407 1.10098 8.62537 0.899414C8.99296 0.694412 9.35963 0.599626 9.59998 0.599609Z" stroke="#4B5563" stroke-width="1.2"/>
</svg>
